# xmcd
#
# Track frame offsets: 
#        150
#        17093
#        29230
#        42110
#        60720
#        74968
#        89025
#        107143
#        121305
#        139210
#        153275
#        165628
#        178723
#        195290
#        208813
#        217228
#        228723
#        240320
#
# Disc length: 3369 seconds
#
# Revision: 8
# Processed by: cddbd v1.5.2PL0 Copyright (c) Steve Scherf et al.
# Submitted via: ExactAudioCopy v0.95b4
#
DISCID=130d2712
DTITLE=Charles Aznavour - Grandes Exitos [en castellano]
DYEAR=1995
DGENRE=Ballad
TTITLE0=Adios La Mama [La Mamma]
TTITLE1=Venecia Sin Ti [Que C'est Triste Venise]
TTITLE2=Apaga La Luz [Eteins La Lumière]
TTITLE3=Buen Anniversario [Bon Anniversaire]
TTITLE4=Con [Avec]
TTITLE5=Debes Saber [Il Faut Savoir]
TTITLE6=La Bohemia [La Bohème]
TTITLE7=Isabel [Isabelle]
TTITLE8=Morir De Amor [Mourir D'aimer]
TTITLE9=Te Espero [Je T'attends]
TTITLE10=Y Por Tanto [Et Pourtant]
TTITLE11=Idiota Te Quiero [Idiote, Je T'aime]
TTITLE12=Quien [Qui]
TTITLE13=Muy Poco Antes De La Guerra [Avant La Guerre]
TTITLE14=Quedate [Reste]
TTITLE15=Viví [J'ai Veçu]
TTITLE16=De Quererte Así [De T'avoir Aimée]
TTITLE17=C'est Fini
EXTD=YEAR: 1995
EXTT0=
EXTT1=
EXTT2=
EXTT3=
EXTT4=
EXTT5=
EXTT6=
EXTT7=
EXTT8=
EXTT9=
EXTT10=
EXTT11=
EXTT12=
EXTT13=
EXTT14=
EXTT15=
EXTT16=
EXTT17=
PLAYORDER=
